<?xml version="1.0" encoding="UTF-8"?><svg id="a" xmlns="http://www.w3.org/2000/svg" viewBox="0 0 2700.22 318.33"><defs><style>.b{stroke:#fff;}.b,.c{fill:none;stroke-miterlimit:10;stroke-width:1.5px;}.c{stroke:#aff005;}.d{fill:#aff005;stroke-width:0px;}</style></defs><circle class="d" cx="868.42" cy="167.52" r="9.28"/><polyline class="c" points="728.36 317.65 868.42 167.52 937.9 317.65"/><line class="c" x1="678.58" y1="38.34" x2="868.42" y2="167.52"/><polyline class="c" points="678.58 38.34 1364.37 10.55 868.42 167.52 1661.31 267.32"/><line class="c" x1="1364.37" y1="10.55" x2="1661.31" y2="267.32"/><line class="c" x1="1661.31" y1="267.32" x2="1638.65" y2="317.65"/><line class="c" x1="1364.37" y1="10.55" x2="1969.73" y2="38.34"/><line class="c" x1="1661.31" y1="267.32" x2="1969.73" y2="38.34"/><polyline class="c" points="1757.3 317.66 1661.31 267.32 2159.57 167.52"/><line class="c" x1=".33" y1="220.77" x2="370.16" y2="267.32"/><polyline class="c" points=".37 13.5 73.22 10.55 .23 33.65"/><line class="c" x1="73.22" y1="10.55" x2="370.16" y2="267.32"/><line class="c" x1="370.16" y1="267.32" x2="347.5" y2="317.65"/><line class="c" x1="73.22" y1="10.55" x2="678.58" y2="38.34"/><line class="c" x1="370.16" y1="267.32" x2="678.58" y2="38.34"/><polyline class="c" points="466.15 317.66 370.16 267.32 868.42 167.52"/><polyline class="c" points="2019.51 317.65 2159.57 167.52 2229.05 317.65"/><line class="c" x1="1969.73" y1="38.34" x2="2159.57" y2="167.52"/><polyline class="c" points="1969.73 38.34 2655.52 10.55 2159.57 167.52 2699.73 235.51"/><line class="c" x1="2655.52" y1="10.55" x2="2699.73" y2="48.78"/><line class="c" x1="2655.52" y1="10.55" x2="2699.85" y2="12.58"/><circle class="b" cx="1661.31" cy="267.32" r="18.28"/><circle class="d" cx="1661.31" cy="267.32" r="10.31"/><circle class="b" cx="868.42" cy="167.52" r="16.46"/><circle class="d" cx="2159.57" cy="167.52" r="9.28"/><circle class="b" cx="2159.57" cy="167.52" r="16.46"/><circle class="b" cx="370.16" cy="267.32" r="18.28"/><circle class="d" cx="370.16" cy="267.32" r="10.31"/><circle class="b" cx="73.22" cy="10.55" r="9.8"/><circle class="d" cx="73.22" cy="10.55" r="5.52"/><circle class="b" cx="1364.37" cy="10.55" r="9.8"/><circle class="d" cx="1364.37" cy="10.55" r="5.52"/><circle class="b" cx="2655.52" cy="10.55" r="9.8"/><circle class="d" cx="2655.52" cy="10.55" r="5.52"/><circle class="b" cx="1969.73" cy="38.34" r="12.32"/><circle class="d" cx="1969.73" cy="38.34" r="6.94"/><circle class="b" cx="678.58" cy="38.34" r="12.32"/><circle class="d" cx="678.58" cy="38.34" r="6.94"/></svg>
